<svg xmlns="http://www.w3.org/2000/svg" viewBox="0 0 1024 1024"><defs><linearGradient id="a" x1="0%" x2="0%" y1="0%" y2="100%"><stop offset="0%" stop-color="#1e2a3a"/><stop offset="100%" stop-color="#0d1520"/></linearGradient><linearGradient id="b" x1="0%" x2="0%" y1="0%" y2="100%"><stop offset="0%" stop-color="#fbbf24"/><stop offset="100%" stop-color="#d97706"/></linearGradient></defs><rect width="1024" height="1024" fill="url(#a)" rx="220"/><path fill="url(#b)" d="m512 176 236 88c0 212 0 372-236 584-236-212-236-372-236-584Z"/><path fill="none" stroke="#fff" stroke-width="10" d="m512 176 236 88c0 212 0 372-236 584-236-212-236-372-236-584Z" opacity=".15"/><path fill="#1e2a3a" d="m512 366 44 96 106 10-80 70 24 104-94-56-94 56 24-104-80-70 106-10Z"/></svg>