<svg xmlns="http://www.w3.org/2000/svg" viewBox="0 0 1024 1024">
  <defs>
    <linearGradient id="bg" x1="0%" y1="0%" x2="0%" y2="100%">
      <stop offset="0%" stop-color="#1e2a3a"/>
      <stop offset="100%" stop-color="#0d1520"/>
    </linearGradient>
  </defs>

  <!-- Background -->
  <rect width="1024" height="1024" rx="220" fill="url(#bg)"/>

  <!-- Card -->
  <rect x="148" y="200" width="728" height="624" rx="72" fill="#ffffff" opacity="0.05"/>

  <!-- Row 1: checked -->
  <rect x="212" y="276" width="100" height="100" rx="22" fill="#3b82f6"/>
  <polyline points="234,326 262,354 320,296" fill="none" stroke="white" stroke-width="14" stroke-linecap="round" stroke-linejoin="round"/>
  <rect x="348" y="296" width="360" height="22" rx="11" fill="white" opacity="0.85"/>
  <rect x="348" y="334" width="220" height="14" rx="7" fill="white" opacity="0.25"/>

  <!-- Divider -->
  <line x1="212" y1="412" x2="812" y2="412" stroke="white" stroke-width="1" opacity="0.07"/>

  <!-- Row 2: checked -->
  <rect x="212" y="436" width="100" height="100" rx="22" fill="#3b82f6"/>
  <polyline points="234,486 262,514 320,456" fill="none" stroke="white" stroke-width="14" stroke-linecap="round" stroke-linejoin="round"/>
  <rect x="348" y="456" width="310" height="22" rx="11" fill="white" opacity="0.85"/>
  <rect x="348" y="494" width="190" height="14" rx="7" fill="white" opacity="0.25"/>

  <!-- Divider -->
  <line x1="212" y1="572" x2="812" y2="572" stroke="white" stroke-width="1" opacity="0.07"/>

  <!-- Row 3: add new -->
  <rect x="212" y="596" width="100" height="100" rx="22" fill="#3b82f6" opacity="0.18"/>
  <line x1="262" y1="618" x2="262" y2="674" stroke="#3b82f6" stroke-width="12" stroke-linecap="round"/>
  <line x1="234" y1="646" x2="290" y2="646" stroke="#3b82f6" stroke-width="12" stroke-linecap="round"/>
  <rect x="348" y="616" width="270" height="22" rx="11" fill="white" opacity="0.2"/>
  <rect x="348" y="654" width="170" height="14" rx="7" fill="white" opacity="0.1"/>
</svg>
